Coordinates
version=1
nRows=27
nColumns=38
inDegrees=no

Units are S.I. units (second, meters, Newtons, ...)
If the header above contains a line with 'inDegrees', this indicates whether rotational values are in degrees (yes) or radians (no).

endheader
time	pelvis_tilt	pelvis_list	pelvis_rotation	pelvis_tx	pelvis_ty	pelvis_tz	hip_flexion_r	hip_adduction_r	hip_rotation_r	knee_angle_r	ankle_angle_r	subtalar_angle_r	mtp_angle_r	hip_flexion_l	hip_adduction_l	hip_rotation_l	knee_angle_l	ankle_angle_l	subtalar_angle_l	mtp_angle_l	lumbar_extension	lumbar_bending	lumbar_rotation	arm_flex_r	arm_add_r	arm_rot_r	elbow_flex_r	pro_sup_r	wrist_flex_r	wrist_dev_r	arm_flex_l	arm_add_l	arm_rot_l	elbow_flex_l	pro_sup_l	wrist_flex_l	wrist_dev_l
0.86	-3.03357	1.53352	1.47034	0.642222	0.56085	1.03062	0.240722	0.0874935	-0.0925273	0.674567	-0.0234325	0	0	0.354246	-0.000666229	-0.0325617	1.20527	-0.0684255	0	0	-0.306403	-0.0166524	-0.0201748	0.0245939	-0.3941	0.895971	0.564244	0.889697	0	0	-0.135509	-0.334759	0.400705	0.559251	1.11275	0	0
0.87	3.12277	1.53986	1.59212	0.641779	0.551864	1.03141	0.222541	0.0795741	-0.101757	0.67623	-0.0210264	0	0	0.366663	0.000468405	-0.0453137	1.17733	-0.0691411	0	0	-0.298943	-0.0207561	-0.0502234	0.189731	-0.425749	1.47145	0.56734	0.367441	0	0	-0.161264	-0.328629	0.358797	0.561738	1.11779	0	0
0.88	2.97055	1.54004	1.73847	0.641321	0.54258	1.0318	0.210838	0.0722694	-0.108255	0.676377	-0.0196205	0	0	0.38209	-0.000172125	-0.0620222	1.14488	-0.0708346	0	0	-0.300104	-0.0267605	-0.0448541	0.187954	-0.428271	1.4568	0.570534	0.380231	0	0	-0.159591	-0.328228	0.358534	0.562723	1.11828	0	0
0.89	2.87569	1.53823	1.82751	0.640879	0.533028	1.0319	0.199707	0.0661723	-0.114894	0.673947	-0.0190435	0	0	0.397322	-0.00325346	-0.0809088	1.10855	-0.0729754	0	0	-0.298014	-0.0313347	-0.0398935	0.190771	-0.429587	1.46273	0.57162	0.376431	0	0	-0.158448	-0.327949	0.362113	0.562332	1.11359	0	0
0.9	-2.86495	1.54726	1.27756	0.639922	0.524491	1.03486	0.110165	0.121986	0.0307244	0.514877	-0.00882426	0	0	0.400198	-0.0293385	-0.100167	1.06501	-0.082058	0	0	-0.311919	-0.0174864	-0.0278435	0.204269	-0.426204	1.48946	0.560228	0.358335	0	0	-0.144864	-0.318964	0.361901	0.546238	1.11634	0	0
0.91	-2.91969	1.54759	1.32973	0.63992	0.515068	1.03474	0.096305	0.119779	0.0281612	0.509062	-0.00667854	0	0	0.411478	-0.0341428	-0.119677	1.02169	-0.0880789	0	0	-0.311207	-0.0187801	-0.026257	0.211728	-0.428347	1.50952	0.562891	0.342365	0	0	-0.144958	-0.3165	0.357561	0.546283	1.11772	0	0
0.92	-3.04969	1.54208	1.4586	0.639946	0.50533	1.03408	0.0919479	0.114949	0.0174008	0.510797	-0.00322795	0	0	0.427754	-0.038142	-0.141352	0.974816	-0.0977788	0	0	-0.323376	-0.0229382	0.0193258	-0.00591356	-0.376639	0.712093	0.56635	1.08043	0	0	-0.108493	-0.32418	0.41628	0.546313	1.10338	0	0
0.93	-3.00578	1.55057	1.41165	0.64022	0.496139	1.034	0.0714266	0.111149	0.00316755	0.509463	0.000381072	0	0	0.427674	-0.0484737	-0.175163	0.928076	-0.11113	0	0	-0.311977	-0.0204164	-0.0259305	0.234606	-0.433019	1.5708	0.571084	0.279491	0	0	-0.14822	-0.309159	0.33741	0.54661	1.12969	0	0
0.94	-3.00709	1.55114	1.4102	0.640329	0.486342	1.03324	0.0588158	0.107088	-0.0120985	0.507727	0.0023798	0	0	0.435638	-0.0627128	-0.219923	0.883003	-0.124137	0	0	-0.311421	-0.0204642	-0.0230449	0.235002	-0.435793	1.5708	0.573284	0.286684	0	0	-0.147793	-0.306926	0.337768	0.544801	1.12958	0	0
0.95	-2.98137	1.55306	1.38091	0.640411	0.476437	1.03247	0.0436522	0.103052	-0.0273035	0.503353	0.00391507	0	0	0.439778	-0.0800679	-0.275396	0.837205	-0.142884	0	0	-0.313933	-0.0205956	-0.0161946	0.220548	-0.441866	1.52157	0.577541	0.331293	0	0	-0.144586	-0.305271	0.34179	0.542555	1.13116	0	0
0.96	-2.99503	1.55284	1.39202	0.640646	0.466632	1.0314	0.0312835	0.0984941	-0.0425668	0.499388	0.00545537	0	0	0.443109	-0.0900214	-0.317327	0.785962	-0.158525	0	0	-0.312106	-0.0207011	-0.0152822	0.228707	-0.442537	1.54825	0.577911	0.309548	0	0	-0.145208	-0.30293	0.340412	0.541034	1.13019	0	0
0.97	-3.07492	1.54731	1.47229	0.641103	0.457221	1.02987	0.0260882	0.0933315	-0.0571209	0.497615	0.00758166	0	0	0.449253	-0.080747	-0.313339	0.722372	-0.164975	0	0	-0.305527	-0.0211991	-0.0166775	0.234905	-0.44117	1.5708	0.575249	0.290909	0	0	-0.144425	-0.300694	0.339937	0.537125	1.12997	0	0
0.98	2.83098	1.52015	1.86083	0.642037	0.449087	1.02896	0.0447746	0.0714512	-0.0734212	0.499308	0.00816578	0	0	0.402607	0.0142804	-0.0932695	0.470244	-0.168837	0	0	-0.302779	-0.0410715	0.014091	0.0117572	-0.366562	0.725982	0.533056	1.08429	0	0	-0.0966655	-0.310809	0.41233	0.518683	1.11076	0	0
0.99	2.82257	1.52426	1.86741	0.642571	0.439684	1.02769	0.0270245	0.0688666	-0.0823624	0.492695	0.0113237	0	0	0.388458	0.0155088	-0.0920615	0.388275	-0.190907	0	0	-0.28887	-0.0381406	-0.0280154	0.2326	-0.417124	1.5708	0.534893	0.293178	0	0	-0.134042	-0.293669	0.321807	0.517235	1.15212	0	0
1	2.87212	1.5197	1.81569	0.643	0.429703	1.02552	0.0194909	0.0672834	-0.0876443	0.488694	0.0144769	0	0	0.388085	0.0163618	-0.0946704	0.321222	-0.206424	0	0	-0.282375	-0.0370934	-0.0260273	0.231339	-0.4191	1.5708	0.535704	0.301685	0	0	-0.135745	-0.291166	0.319285	0.516454	1.15301	0	0
1.01	2.91089	1.51593	1.77449	0.643531	0.419594	1.0233	0.011091	0.0657852	-0.0908546	0.485165	0.0184569	0	0	0.388719	0.0170145	-0.0991791	0.264815	-0.223186	0	0	-0.278695	-0.0360831	-0.020527	0.210984	-0.424882	1.50037	0.539114	0.364417	0	0	-0.135818	-0.287304	0.312004	0.515534	1.16339	0	0
1.02	2.94045	1.51342	1.74188	0.644109	0.409373	1.02116	0.00194456	0.0635809	-0.0908593	0.483287	0.0211218	0	0	0.389533	0.0178204	-0.103506	0.219801	-0.233563	0	0	-0.275319	-0.0350617	-0.0170656	0.20428	-0.428295	1.47805	0.541626	0.383802	0	0	-0.136897	-0.284398	0.309894	0.514315	1.16547	0	0
1.03	2.95215	1.51244	1.72642	0.644688	0.399004	1.01915	-0.00874621	0.0609132	-0.0890732	0.482419	0.023656	0	0	0.389358	0.0192291	-0.108822	0.184069	-0.239098	0	0	-0.273911	-0.0348805	-0.0129003	0.197048	-0.431649	1.45396	0.544274	0.40479	0	0	-0.136578	-0.284511	0.321197	0.513626	1.15355	0	0
1.04	2.94537	1.51053	1.72799	0.645122	0.388227	1.01726	-0.0191252	0.0575451	-0.0860661	0.48135	0.0267565	0	0	0.390019	0.0224637	-0.112793	0.152925	-0.246162	0	0	-0.282688	-0.0384065	0.017079	0.0596807	-0.411466	0.955267	0.546916	0.856902	0	0	-0.121741	-0.280772	0.322311	0.510816	1.17814	0	0
1.05	2.89874	1.51952	1.77066	0.645896	0.377881	1.01604	-0.0410385	0.0537635	-0.0833869	0.479263	0.0296125	0	0	0.377485	0.0260198	-0.121545	0.127667	-0.250754	0	0	-0.278994	-0.0374157	-0.0139395	0.227743	-0.432091	1.56022	0.546407	0.316337	0	0	-0.148162	-0.267043	0.257513	0.510194	1.20689	0	0
1.06	2.84455	1.52255	1.81989	0.646379	0.367002	1.01453	-0.0562915	0.0492141	-0.0797693	0.479879	0.0310572	0	0	0.373071	0.0304336	-0.131423	0.113324	-0.252165	0	0	-0.282452	-0.040511	-0.00996343	0.22378	-0.432631	1.54996	0.545367	0.32418	0	0	-0.148678	-0.264915	0.256393	0.507954	1.20851	0	0
1.07	2.77389	1.52453	1.88507	0.646688	0.355855	1.01309	-0.0704805	0.0442489	-0.075352	0.481157	0.0322771	0	0	0.368916	0.0353146	-0.141693	0.105069	-0.253534	0	0	-0.292753	-0.0458557	0.0124624	0.132326	-0.433495	1.23126	0.546606	0.59798	0	0	-0.135173	-0.268245	0.284259	0.505345	1.20116	0	0
1.08	2.6614	1.52968	1.99203	0.646976	0.344681	1.01194	-0.0884166	0.0392058	-0.0715745	0.482504	0.0330005	0	0	0.360409	0.0401694	-0.151921	0.10283	-0.254832	0	0	-0.298869	-0.0504256	0.0159174	0.13585	-0.432747	1.2485	0.544035	0.58205	0	0	-0.136248	-0.265963	0.279262	0.502585	1.20596	0	0
1.09	2.56046	1.53079	2.0883	0.647118	0.333164	1.01064	-0.10218	0.0340714	-0.067773	0.484628	0.0328103	0	0	0.356362	0.0448823	-0.161699	0.109459	-0.255455	0	0	-0.311719	-0.057012	0.0446495	0.00530899	-0.380888	0.740069	0.537251	1.06976	0	0	-0.117272	-0.273819	0.326497	0.50168	1.18434	0	0
1.1	2.37483	1.53778	2.2692	0.64752	0.32183	1.0096	-0.122444	0.0298865	-0.0653344	0.487731	0.0315648	0	0	0.346809	0.0474771	-0.173619	0.125445	-0.253324	0	0	-0.30694	-0.0588804	0.0163044	0.168833	-0.430268	1.38275	0.536148	0.463322	0	0	-0.14772	-0.256203	0.232614	0.50069	1.24493	0	0
1.11	2.29351	1.53791	2.34514	0.647684	0.309747	1.00809	-0.13444	0.0252548	-0.0620942	0.492228	0.0295706	0	0	0.346704	0.0487713	-0.189493	0.151796	-0.250264	0	0	-0.30969	-0.0639156	0.0300827	0.125041	-0.425036	1.24138	0.53244	0.585803	0	0	-0.145415	-0.255776	0.233371	0.498938	1.25588	0	0
1.12	2.19344	1.54026	2.4418	0.647896	0.297577	1.00667	-0.148913	0.0223608	-0.0607657	0.496223	0.0263765	0	0	0.346143	0.04786	-0.203583	0.187513	-0.247507	0	0	-0.312491	-0.0668177	0.0379732	0.102916	-0.420528	1.1767	0.530607	0.642227	0	0	-0.146522	-0.259003	0.244268	0.50055	1.25013	0	0
